<svg version="1.1" id="Layer_1" xmlns="http://www.w3.org/2000/svg" xmlns:xlink="http://www.w3.org/1999/xlink" x="0px" y="0px"
	 width="100%" viewBox="0 0 512 512" enable-background="new 0 0 512 512" xml:space="preserve">
<path fill="#FFFFFF" opacity="1.000000" stroke="none" 
	d="
M248.000000,513.000000 
	C165.353378,513.000000 83.206757,513.000000 1.030068,513.000000 
	C1.030068,342.395020 1.030068,171.790039 1.030068,1.092523 
	C171.563309,1.092523 342.126678,1.092523 512.845032,1.092523 
	C512.845032,171.666565 512.845032,342.333252 512.845032,513.000000 
	C424.790009,513.000000 336.644989,513.000000 248.000000,513.000000 
M219.620682,320.167114 
	C235.508987,273.560028 239.198593,225.861252 232.670792,176.480484 
	C191.437683,185.599106 160.989151,208.147781 141.726044,245.296600 
	C123.458717,280.525024 125.079575,323.276398 137.041916,347.805176 
	C154.899170,338.465729 166.500275,341.753571 181.453278,360.542633 
	C187.855530,354.426575 195.304535,353.411255 204.098358,356.968658 
	C209.266068,344.728943 214.297211,332.812622 219.620682,320.167114 
M376.564850,348.948059 
	C407.013824,267.734558 352.135590,190.556412 284.463989,177.941589 
	C283.360413,190.214966 281.834137,202.389816 281.261292,214.609375 
	C280.230347,236.600403 282.175354,258.450623 286.009338,280.112274 
	C290.078186,303.101105 296.670074,325.337402 306.653595,346.490234 
	C307.313904,347.889313 308.940369,349.874817 310.074188,349.846649 
	C321.310760,349.567352 329.994904,354.171936 336.540680,363.239227 
	C337.154968,362.677246 337.593964,362.414795 337.841187,362.029327 
	C346.579315,348.403809 358.018158,344.587097 373.452972,350.063293 
	C374.240112,350.342529 375.320343,349.795837 376.564850,348.948059 
M183.634583,408.889618 
	C259.463654,459.542816 347.183258,417.852600 371.740234,358.200745 
	C352.957245,354.665070 341.265472,362.369720 335.269104,380.150421 
	C334.897003,377.813538 335.143188,375.780975 334.826172,373.840454 
	C334.523499,371.987793 334.067383,369.878876 332.935669,368.486603 
	C322.026642,355.066345 302.512390,354.188141 290.080566,366.207672 
	C287.056946,369.131042 286.164581,371.464691 288.267883,375.586273 
	C293.388947,385.621613 293.995270,394.958038 290.941559,402.588135 
	C290.717743,402.401428 290.350311,402.248199 290.297516,402.021637 
	C290.148621,401.382629 290.109406,400.714935 290.061127,400.056030 
	C289.120972,387.227234 283.566803,376.713379 273.532013,368.829010 
	C252.616318,352.395416 223.954391,356.473022 208.162476,377.849396 
	C207.250229,379.084229 205.987823,380.060394 204.888367,381.156921 
	C205.158386,377.819824 206.105621,375.168976 207.582138,372.856018 
	C209.161362,370.382172 208.658203,368.785553 206.667099,366.866974 
	C201.297653,361.693176 193.549789,360.139862 186.805176,362.982910 
	C183.829697,364.237152 182.652542,365.985962 182.763840,369.448547 
	C182.911972,374.056976 182.057220,378.697662 181.633301,383.324493 
	C181.199356,383.272552 180.765427,383.220581 180.331497,383.168640 
	C177.302139,358.135406 157.267349,343.786743 138.656342,353.994690 
	C148.330582,376.347076 163.189011,394.407990 183.634583,408.889618 
M262.942596,222.500000 
	C263.269836,239.318863 263.568909,256.138336 263.940033,272.956268 
	C264.064911,278.614960 264.180695,284.285004 264.633331,289.923157 
	C266.001129,306.961212 267.451813,323.993683 269.049957,341.011475 
	C269.512421,345.936493 269.241486,351.670258 271.705963,355.482208 
	C274.866821,360.371368 280.450714,363.694031 284.077362,366.887451 
	C289.600708,361.451630 294.936188,356.200684 300.924561,350.307190 
	C300.259979,348.742310 299.103973,346.032776 297.957672,343.319153 
	C281.346527,303.995605 274.090210,262.912537 274.844757,220.326736 
	C274.947998,214.499222 274.398407,208.542297 275.422821,202.875168 
	C277.187378,193.113342 276.800873,183.806992 272.568390,174.811127 
	C272.038055,173.683899 270.629333,172.330215 269.550842,172.259964 
	C268.152557,172.168900 266.169769,172.875839 265.363647,173.939957 
	C264.356720,175.269165 263.925201,177.301071 263.876495,179.047211 
	C263.481934,193.195816 263.235413,207.348526 262.942596,222.500000 
M254.005920,216.500000 
	C253.978195,206.337418 254.104828,196.170868 253.842407,186.014343 
	C253.745209,182.252167 252.984177,178.445572 251.993195,174.804230 
	C251.681412,173.658646 249.624573,172.289093 248.383850,172.305923 
	C247.299789,172.320618 245.717316,173.945145 245.254593,175.192215 
	C242.242767,183.309143 240.827881,191.372238 241.440552,200.410400 
	C242.900894,221.953918 242.331055,243.549683 239.154800,265.065979 
	C234.410568,297.203827 225.680817,328.008270 210.475891,356.799316 
	C208.451630,360.632294 208.984528,363.065186 212.184097,365.724579 
	C221.240097,354.650391 233.114838,349.808380 246.993454,348.640930 
	C251.803406,304.835876 254.337692,261.248718 254.005920,216.500000 
M257.307373,171.211517 
	C258.175201,171.055023 259.654907,171.134048 259.819336,170.706818 
	C262.423309,163.941437 267.813080,164.479904 273.653015,165.391113 
	C274.861938,168.764709 276.119202,172.273117 277.692688,176.663971 
	C278.581787,174.084457 279.397003,172.329666 279.781677,170.485107 
	C280.796539,165.618668 281.684326,160.723373 282.515228,155.821365 
	C284.546936,143.834946 286.621613,147.268478 275.961731,141.128632 
	C273.849030,139.911774 272.482788,138.931778 272.609467,135.868668 
	C272.923737,128.267746 273.181915,120.547745 272.210083,113.037651 
	C270.734070,101.631325 266.351471,91.133560 259.389160,81.197655 
	C248.810303,97.037834 243.386292,113.788528 244.837189,132.313812 
	C245.239914,137.455719 244.606201,140.971756 239.406662,142.769592 
	C238.015167,143.250702 236.654068,144.030502 235.516861,144.963196 
	C234.743164,145.597748 233.791031,146.839676 233.928757,147.635117 
	C235.620438,157.406128 237.498672,167.144836 239.338852,176.945984 
	C244.042313,173.812576 240.028671,165.658203 247.962189,164.895355 
	C252.871628,164.423294 255.266129,166.589981 257.307373,171.211517 
z"/>
<path fill="#2F1852" opacity="1.000000" stroke="none" 
	d="
M219.474518,320.531738 
	C214.297211,332.812622 209.266068,344.728943 204.098358,356.968658 
	C195.304535,353.411255 187.855530,354.426575 181.453278,360.542633 
	C166.500275,341.753571 154.899170,338.465729 137.041916,347.805176 
	C125.079575,323.276398 123.458717,280.525024 141.726044,245.296600 
	C160.989151,208.147781 191.437683,185.599106 232.670792,176.480484 
	C239.198593,225.861252 235.508987,273.560028 219.474518,320.531738 
M201.119461,296.639282 
	C201.834534,289.308533 208.533401,288.415283 213.671967,285.312195 
	C205.397934,284.090576 201.274628,278.819763 198.775253,271.260986 
	C197.709473,279.750854 192.194672,283.586090 184.940704,286.343689 
	C193.568253,287.442810 197.305923,292.874542 199.096710,300.953033 
	C200.057617,299.103455 200.509048,298.234497 201.119461,296.639282 
M221.570053,235.145020 
	C221.373581,234.671143 221.243073,233.826233 220.970932,233.777863 
	C214.747681,232.671234 211.962463,228.326614 210.300064,222.410309 
	C208.541901,228.725586 205.103195,233.257645 198.302811,235.074432 
	C205.548935,236.275711 208.556564,240.951263 210.422302,247.806625 
	C211.746811,244.397690 212.147400,241.435425 213.805695,239.625580 
	C215.569321,237.700790 218.524582,236.867874 221.570053,235.145020 
M158.976669,298.520538 
	C158.245636,297.060669 157.514603,295.600769 157.197479,294.967438 
	C154.200897,298.036652 151.417862,300.887146 149.384140,302.970154 
	C151.911530,305.603638 154.579010,308.383087 156.791779,310.688721 
	C159.254807,308.162903 162.142380,305.201691 164.839066,302.436249 
	C163.205017,301.487854 161.236145,300.345123 158.976669,298.520538 
M160.507095,255.558731 
	C162.731613,257.582825 164.956131,259.606934 167.180649,261.631042 
	C166.354523,260.844025 165.528397,260.057007 164.702286,259.270020 
	C166.890884,257.471283 169.079498,255.672577 171.268097,253.873856 
	C171.006699,255.237991 170.745285,256.602112 170.483887,257.966248 
	C168.505203,255.728561 166.526520,253.490875 164.547836,251.253189 
	C165.358170,250.790970 166.168503,250.328766 166.978836,249.866547 
	C164.984802,251.606827 162.990753,253.347092 160.507095,255.558731 
z"/>
<path fill="#2F1852" opacity="1.000000" stroke="none" 
	d="
M376.414490,349.290894 
	C375.320343,349.795837 374.240112,350.342529 373.452972,350.063293 
	C358.018158,344.587097 346.579315,348.403809 337.841187,362.029327 
	C337.593964,362.414795 337.154968,362.677246 336.540680,363.239227 
	C329.994904,354.171936 321.310760,349.567352 310.074188,349.846649 
	C308.940369,349.874817 307.313904,347.889313 306.653595,346.490234 
	C296.670074,325.337402 290.078186,303.101105 286.009338,280.112274 
	C282.175354,258.450623 280.230347,236.600403 281.261292,214.609375 
	C281.834137,202.389816 283.360413,190.214966 284.463989,177.941589 
	C352.135590,190.556412 407.013824,267.734558 376.414490,349.290894 
M320.321655,284.220612 
	C318.073456,280.686493 315.825256,277.152344 313.011475,272.729156 
	C312.187469,281.369781 306.949890,285.409210 299.320312,287.700226 
	C307.946320,289.246979 311.336670,295.144196 313.709656,302.616394 
	C315.015472,294.068817 320.420868,289.860626 329.427368,287.958710 
	C325.580933,286.412018 323.291992,285.491638 320.321655,284.220612 
M303.412781,247.003601 
	C304.441193,240.748871 309.593903,238.784943 314.786011,236.444061 
	C307.708496,235.321609 304.533386,230.621201 302.403076,224.255081 
	C301.620850,231.470993 296.792084,234.446243 290.729645,236.558655 
	C296.777161,238.193741 300.437225,241.526352 301.688934,247.291931 
	C301.736176,247.509537 302.577820,247.554657 303.412781,247.003601 
M356.310333,313.434998 
	C358.857605,310.376312 361.404907,307.317596 363.512817,304.786530 
	C361.295319,302.429932 358.521515,299.482117 356.363098,297.188324 
	C353.708893,299.708649 350.813385,302.458099 348.709259,304.456085 
	C350.764038,307.141632 353.191345,310.314056 356.310333,313.434998 
M341.188843,256.535156 
	C340.972992,256.997772 340.470154,257.771667 340.584015,257.876678 
	C342.526581,259.667664 344.545502,261.375793 346.321320,262.907074 
	C348.088318,261.237183 350.191193,259.249878 352.294098,257.262573 
	C351.574799,258.003754 350.855499,258.744934 350.136200,259.486115 
	C348.208008,257.448730 346.279816,255.411362 344.351593,253.373978 
	C345.078461,252.792847 345.805328,252.211700 346.532196,251.630554 
	C344.969421,253.160843 343.406677,254.691132 341.188843,256.535156 
z"/>
<path fill="#8E61D3" opacity="1.000000" stroke="none" 
	d="
M183.354721,408.663788 
	C163.189011,394.407990 148.330582,376.347076 138.656342,353.994690 
	C157.267349,343.786743 177.302139,358.135406 180.331497,383.168640 
	C180.765427,383.220581 181.199356,383.272552 181.633301,383.324493 
	C182.057220,378.697662 182.911972,374.056976 182.763840,369.448547 
	C182.652542,365.985962 183.829697,364.237152 186.805176,362.982910 
	C193.549789,360.139862 201.297653,361.693176 206.667099,366.866974 
	C208.658203,368.785553 209.161362,370.382172 207.582138,372.856018 
	C206.105621,375.168976 205.158386,377.819824 204.888367,381.156921 
	C205.987823,380.060394 207.250229,379.084229 208.162476,377.849396 
	C223.954391,356.473022 252.616318,352.395416 273.532013,368.829010 
	C283.566803,376.713379 289.120972,387.227234 290.061127,400.056030 
	C290.109406,400.714935 290.148621,401.382629 290.297516,402.021637 
	C290.350311,402.248199 290.717743,402.401428 290.942505,402.587006 
	C293.995270,394.958038 293.388947,385.621613 288.267883,375.586273 
	C286.164581,371.464691 287.056946,369.131042 290.080566,366.207672 
	C302.512390,354.188141 322.026642,355.066345 332.935669,368.486603 
	C334.067383,369.878876 334.523499,371.987793 334.826172,373.840454 
	C335.143188,375.780975 334.897003,377.813538 335.269104,380.150421 
	C341.265472,362.369720 352.957245,354.665070 371.740234,358.200745 
	C347.183258,417.852600 259.463654,459.542816 183.354721,408.663788 
z"/>
<path fill="#8F63D2" opacity="1.000000" stroke="none" 
	d="
M262.943176,222.000000 
	C263.235413,207.348526 263.481934,193.195816 263.876495,179.047211 
	C263.925201,177.301071 264.356720,175.269165 265.363647,173.939957 
	C266.169769,172.875839 268.152557,172.168900 269.550842,172.259964 
	C270.629333,172.330215 272.038055,173.683899 272.568390,174.811127 
	C276.800873,183.806992 277.187378,193.113342 275.422821,202.875168 
	C274.398407,208.542297 274.947998,214.499222 274.844757,220.326736 
	C274.090210,262.912537 281.346527,303.995605 297.957672,343.319153 
	C299.103973,346.032776 300.259979,348.742310 300.924561,350.307190 
	C294.936188,356.200684 289.600708,361.451630 284.077362,366.887451 
	C280.450714,363.694031 274.866821,360.371368 271.705963,355.482208 
	C269.241486,351.670258 269.512421,345.936493 269.049957,341.011475 
	C267.451813,323.993683 266.001129,306.961212 264.633331,289.923157 
	C264.180695,284.285004 264.064911,278.614960 263.940033,272.956268 
	C263.568909,256.138336 263.269836,239.318863 262.943176,222.000000 
z"/>
<path fill="#8F62D2" opacity="1.000000" stroke="none" 
	d="
M254.005920,217.000000 
	C254.337692,261.248718 251.803406,304.835876 246.993454,348.640930 
	C233.114838,349.808380 221.240097,354.650391 212.184097,365.724579 
	C208.984528,363.065186 208.451630,360.632294 210.475891,356.799316 
	C225.680817,328.008270 234.410568,297.203827 239.154800,265.065979 
	C242.331055,243.549683 242.900894,221.953918 241.440552,200.410400 
	C240.827881,191.372238 242.242767,183.309143 245.254593,175.192215 
	C245.717316,173.945145 247.299789,172.320618 248.383850,172.305923 
	C249.624573,172.289093 251.681412,173.658646 251.993195,174.804230 
	C252.984177,178.445572 253.745209,182.252167 253.842407,186.014343 
	C254.104828,196.170868 253.978195,206.337418 254.005920,217.000000 
z"/>
<path fill="#311B53" opacity="1.000000" stroke="none" 
	d="
M257.127258,170.884949 
	C255.266129,166.589981 252.871628,164.423294 247.962189,164.895355 
	C240.028671,165.658203 244.042313,173.812576 239.338852,176.945984 
	C237.498672,167.144836 235.620438,157.406128 233.928757,147.635117 
	C233.791031,146.839676 234.743164,145.597748 235.516861,144.963196 
	C236.654068,144.030502 238.015167,143.250702 239.406662,142.769592 
	C244.606201,140.971756 245.239914,137.455719 244.837189,132.313812 
	C243.386292,113.788528 248.810303,97.037834 259.389160,81.197655 
	C266.351471,91.133560 270.734070,101.631325 272.210083,113.037651 
	C273.181915,120.547745 272.923737,128.267746 272.609467,135.868668 
	C272.482788,138.931778 273.849030,139.911774 275.961731,141.128632 
	C286.621613,147.268478 284.546936,143.834946 282.515228,155.821365 
	C281.684326,160.723373 280.796539,165.618668 279.781677,170.485107 
	C279.397003,172.329666 278.581787,174.084457 277.692688,176.663971 
	C276.119202,172.273117 274.861938,168.764709 273.653015,165.391113 
	C267.813080,164.479904 262.423309,163.941437 259.819336,170.706818 
	C259.654907,171.134048 258.175201,171.055023 257.127258,170.884949 
M252.983215,126.434837 
	C253.540619,127.613388 253.847061,129.032349 254.702530,129.925354 
	C257.259033,132.594040 260.261139,132.879089 262.973572,130.267532 
	C265.493469,127.841339 265.505707,124.813751 263.170441,122.320587 
	C260.644501,119.623894 257.594635,119.644005 254.914459,122.264244 
	C254.024734,123.134064 253.637009,124.517403 252.983215,126.434837 
z"/>
<path fill="#F4F3F6" opacity="1.000000" stroke="none" 
	d="
M201.039978,297.002441 
	C200.509048,298.234497 200.057617,299.103455 199.096710,300.953033 
	C197.305923,292.874542 193.568253,287.442810 184.940704,286.343689 
	C192.194672,283.586090 197.709473,279.750854 198.775253,271.260986 
	C201.274628,278.819763 205.397934,284.090576 213.671967,285.312195 
	C208.533401,288.415283 201.834534,289.308533 201.039978,297.002441 
z"/>
<path fill="#F1EFF3" opacity="1.000000" stroke="none" 
	d="
M221.264801,235.351608 
	C218.524582,236.867874 215.569321,237.700790 213.805695,239.625580 
	C212.147400,241.435425 211.746811,244.397690 210.422302,247.806625 
	C208.556564,240.951263 205.548935,236.275711 198.302811,235.074432 
	C205.103195,233.257645 208.541901,228.725586 210.300064,222.410309 
	C211.962463,228.326614 214.747681,232.671234 220.970932,233.777863 
	C221.243073,233.826233 221.373581,234.671143 221.264801,235.351608 
z"/>
<path fill="#EAE8EE" opacity="1.000000" stroke="none" 
	d="
M159.121979,298.861450 
	C161.236145,300.345123 163.205017,301.487854 164.839066,302.436249 
	C162.142380,305.201691 159.254807,308.162903 156.791779,310.688721 
	C154.579010,308.383087 151.911530,305.603638 149.384140,302.970154 
	C151.417862,300.887146 154.200897,298.036652 157.197479,294.967438 
	C157.514603,295.600769 158.245636,297.060669 159.121979,298.861450 
z"/>
<path fill="#E5E2EA" opacity="1.000000" stroke="none" 
	d="
M160.751892,255.323059 
	C162.990753,253.347092 164.984802,251.606827 166.978836,249.866547 
	C166.168503,250.328766 165.358170,250.790970 164.547836,251.253189 
	C166.526520,253.490875 168.505203,255.728561 170.483887,257.966248 
	C170.745285,256.602112 171.006699,255.237991 171.268097,253.873856 
	C169.079498,255.672577 166.890884,257.471283 164.702286,259.270020 
	C165.528397,260.057007 166.354523,260.844025 167.180649,261.631042 
	C164.956131,259.606934 162.731613,257.582825 160.751892,255.323059 
z"/>
<path fill="#F2F0F4" opacity="1.000000" stroke="none" 
	d="
M320.662354,284.395935 
	C323.291992,285.491638 325.580933,286.412018 329.427368,287.958710 
	C320.420868,289.860626 315.015472,294.068817 313.709656,302.616394 
	C311.336670,295.144196 307.946320,289.246979 299.320312,287.700226 
	C306.949890,285.409210 312.187469,281.369781 313.011475,272.729156 
	C315.825256,277.152344 318.073456,280.686493 320.662354,284.395935 
z"/>
<path fill="#F2F0F4" opacity="1.000000" stroke="none" 
	d="
M303.231018,247.341888 
	C302.577820,247.554657 301.736176,247.509537 301.688934,247.291931 
	C300.437225,241.526352 296.777161,238.193741 290.729645,236.558655 
	C296.792084,234.446243 301.620850,231.470993 302.403076,224.255081 
	C304.533386,230.621201 307.708496,235.321609 314.786011,236.444061 
	C309.593903,238.784943 304.441193,240.748871 303.231018,247.341888 
z"/>
<path fill="#E9E7ED" opacity="1.000000" stroke="none" 
	d="
M355.964508,313.460754 
	C353.191345,310.314056 350.764038,307.141632 348.709259,304.456085 
	C350.813385,302.458099 353.708893,299.708649 356.363098,297.188324 
	C358.521515,299.482117 361.295319,302.429932 363.512817,304.786530 
	C361.404907,307.317596 358.857605,310.376312 355.964508,313.460754 
z"/>
<path fill="#E5E2EA" opacity="1.000000" stroke="none" 
	d="
M341.516388,256.378296 
	C343.406677,254.691132 344.969421,253.160843 346.532196,251.630554 
	C345.805328,252.211700 345.078461,252.792847 344.351593,253.373978 
	C346.279816,255.411362 348.208008,257.448730 350.136200,259.486115 
	C350.855499,258.744934 351.574799,258.003754 352.294098,257.262573 
	C350.191193,259.249878 348.088318,261.237183 346.321320,262.907074 
	C344.545502,261.375793 342.526581,259.667664 340.584015,257.876678 
	C340.470154,257.771667 340.972992,256.997772 341.516388,256.378296 
z"/>
<path fill="#DDDBE1" opacity="1.000000" stroke="none" 
	d="
M253.001495,126.050400 
	C253.637009,124.517403 254.024734,123.134064 254.914459,122.264244 
	C257.594635,119.644005 260.644501,119.623894 263.170441,122.320587 
	C265.505707,124.813751 265.493469,127.841339 262.973572,130.267532 
	C260.261139,132.879089 257.259033,132.594040 254.702530,129.925354 
	C253.847061,129.032349 253.540619,127.613388 253.001495,126.050400 
z"/>
</svg>